<svg width="78" height="78" viewBox="0 0 78 78" fill="none" xmlns="http://www.w3.org/2000/svg">
<path d="M76.3926 68.2892L61.3759 53.2726C60.8381 52.7362 60.1096 52.435 59.3501 52.435C58.5905 52.435 57.862 52.7362 57.3242 53.2726L56.5522 54.0482L51.3636 48.8597L52.0436 48.1761C56.8704 42.3548 59.269 34.8978 58.7412 27.3541C58.2134 19.8105 54.7998 12.7601 49.2095 7.66758C43.6192 2.57507 36.2819 -0.168074 28.7219 0.00797883C21.1618 0.184032 13.9602 3.26575 8.61296 8.61296C3.26575 13.9602 0.184032 21.1618 0.00797883 28.7219C-0.168074 36.2819 2.57507 43.6192 7.66758 49.2095C12.7601 54.7998 19.8105 58.2134 27.3541 58.7412C34.8978 59.269 42.3548 56.8704 48.1761 52.0436L48.8596 51.3636L54.0482 56.5522L53.2726 57.3242C52.7351 57.8622 52.4332 58.5914 52.4332 59.3518C52.4332 60.1122 52.7351 60.8415 53.2726 61.3794L68.2892 76.389C68.555 76.6549 68.8705 76.8659 69.2178 77.0098C69.5651 77.1537 69.9374 77.2277 70.3133 77.2277C70.6892 77.2277 71.0615 77.1537 71.4088 77.0098C71.7561 76.8659 72.0716 76.6549 72.3374 76.389L76.3926 72.3409C76.9281 71.8027 77.2287 71.0743 77.2287 70.3151C77.2287 69.5558 76.9281 68.8275 76.3926 68.2892ZM29.4017 55.2701C26.0092 55.2788 22.6486 54.6144 19.5147 53.3152C16.3808 52.0161 13.5358 50.108 11.1444 47.7015C7.59818 44.1606 5.15758 39.6653 4.11965 34.7626C3.08171 29.8599 3.49119 24.7612 5.29825 20.087C7.10532 15.4128 10.232 11.3645 14.298 8.43499C18.3639 5.50544 23.1936 3.82086 28.1995 3.58624C33.2054 3.35163 38.1715 4.5771 42.4936 7.11353C46.8157 9.64995 50.3074 13.388 52.5437 17.8727C54.78 22.3574 55.6646 27.3955 55.0897 32.3738C54.5149 37.3521 52.5054 42.0559 49.3059 45.913L45.6722 49.5326C41.0702 53.2574 35.3222 55.2836 29.4017 55.2701ZM70.3151 73.4069L56.2546 59.3536L59.3501 56.2617L73.4105 70.3151L70.3151 73.4069Z" fill="black"/>
</svg>
