<svg width="27" height="27" viewBox="0 0 27 27" fill="none" xmlns="http://www.w3.org/2000/svg">
<g clip-path="url(#clip0_348_146)">
<path d="M26.4375 15.1875V11.8125H23.3494C23.0899 10.4683 22.5619 9.19031 21.7969 8.055L23.9794 5.87812L21.1219 3.02062L18.945 5.20312C17.8097 4.43813 16.5317 3.91009 15.1875 3.65062V0.5625H11.8125V3.65062C10.4683 3.91009 9.19031 4.43813 8.055 5.20312L5.87812 3.02062L3.02062 5.87812L5.20312 8.055C4.43813 9.19031 3.91009 10.4683 3.65062 11.8125H0.5625V15.1875H3.65062C3.91009 16.5317 4.43813 17.8097 5.20312 18.945L3.02062 21.1219L5.87812 23.9794L8.055 21.7969C9.19031 22.5619 10.4683 23.0899 11.8125 23.3494V26.4375H15.1875V23.3494C16.5317 23.0899 17.8097 22.5619 18.945 21.7969L21.1219 23.9794L23.9794 21.1219L21.7969 18.945C22.5619 17.8097 23.0899 16.5317 23.3494 15.1875H26.4375Z" stroke="white" stroke-width="1.5" stroke-linecap="round" stroke-linejoin="round"/>
<path d="M13.5 18.5625C16.2959 18.5625 18.5625 16.2959 18.5625 13.5C18.5625 10.7041 16.2959 8.4375 13.5 8.4375C10.7041 8.4375 8.4375 10.7041 8.4375 13.5C8.4375 16.2959 10.7041 18.5625 13.5 18.5625Z" stroke="white" stroke-width="1.5" stroke-linecap="round" stroke-linejoin="round"/>
</g>
<defs>
<clipPath id="clip0_348_146">
<rect width="27" height="27" fill="white"/>
</clipPath>
</defs>
</svg>
