<svg width="27" height="27" viewBox="0 0 27 27" fill="none" xmlns="http://www.w3.org/2000/svg">
<path fill-rule="evenodd" clip-rule="evenodd" d="M16.3581 14.8602L25.7417 5.47658C26.0861 5.13223 26.0861 4.6157 25.7417 4.27135L22.7286 1.25826C22.3843 0.913912 21.8678 0.913912 21.5234 1.25826L12.1398 10.6419C11.8815 10.9001 11.8385 11.2875 11.9676 11.6319C11.7955 11.6749 11.6663 11.761 11.5372 11.8471L10.6333 12.1484C10.2889 12.4928 10.2889 13.0093 10.6333 13.3537L13.6463 16.3667C13.9907 16.7111 14.5072 16.7111 14.8516 16.3667L15.1529 15.4628C15.282 15.3337 15.3681 15.2045 15.3681 15.0324C15.7125 15.1615 16.0999 15.1185 16.3581 14.8602Z" stroke="white" stroke-width="1.5"/>
<path fill-rule="evenodd" clip-rule="evenodd" d="M2.16935 26L1 24.8673L3.29839 21.4693L4.70968 20.5793L11.8065 13.5L13.5 15.199L6.40323 22.3188L5.55645 23.7346L2.16935 26Z" stroke="white" stroke-width="1.5"/>
</svg>
