<svg width="45" height="45" viewBox="0 0 45 45" fill="none" xmlns="http://www.w3.org/2000/svg">
<path fill-rule="evenodd" clip-rule="evenodd" d="M27.969 23.6073L42.5976 8.97876C43.1344 8.44194 43.1344 7.63669 42.5976 7.09987L37.9003 2.40262C37.3635 1.86579 36.5582 1.86579 36.0214 2.40262L21.3928 17.0312C20.9902 17.4338 20.9231 18.0377 21.1244 18.5746C20.856 18.6417 20.6547 18.7759 20.4534 18.9101L19.0442 19.3798C18.5074 19.9166 18.5074 20.7219 19.0442 21.2587L23.7415 25.956C24.2783 26.4928 25.0835 26.4928 25.6204 25.956L26.0901 24.5468C26.2914 24.3455 26.4256 24.1442 26.4256 23.8757C26.9624 24.0771 27.5664 24.01 27.969 23.6073Z" stroke="#464649" stroke-width="3"/>
<path fill-rule="evenodd" clip-rule="evenodd" d="M3.946 42.9327L2 41.0538L5.8249 35.4171L8.17352 33.9409L19.9837 22.1978L22.8021 25.0161L10.9919 36.8263L9.5827 39.1749L3.946 42.9327Z" stroke="#464649" stroke-width="3"/>
</svg>
