<svg width="25" height="25" viewBox="0 0 25 25" fill="none" xmlns="http://www.w3.org/2000/svg">
<path d="M16.0714 9.82143C16.0714 11.0054 16.5418 12.1409 17.379 12.9782C18.2162 13.8154 19.3517 14.2857 20.5357 14.2857C21.7197 14.2857 22.8552 13.8154 23.6924 12.9782C24.5297 12.1409 25 11.0054 25 9.82143C25 9.6828 24.9678 9.54606 24.9058 9.42205L21.3344 2.2792C21.2382 2.08693 21.076 1.93579 20.8774 1.85355C20.6787 1.77131 20.4571 1.76349 20.2532 1.83152L14.6007 3.71545C14.2876 3.31736 13.8692 3.01508 13.3929 2.84295V0H11.6071V2.84295C11.095 3.02409 10.6502 3.35692 10.3318 3.79715C10.0135 4.23738 9.83688 4.76411 9.82536 5.30723L4.18179 7.18848C3.95718 7.26337 3.77152 7.4244 3.66563 7.63616L0.0941965 14.779C0.0321913 14.9031 -5.98134e-05 15.0399 8.32773e-08 15.1786C8.32773e-08 16.3626 0.470343 17.4981 1.30756 18.3353C2.14478 19.1725 3.28028 19.6429 4.46429 19.6429C5.64829 19.6429 6.7838 19.1725 7.62101 18.3353C8.45823 17.4981 8.92857 16.3626 8.92857 15.1786C8.9286 15.0399 8.89635 14.9032 8.83437 14.7792L5.72321 8.55714L10.3991 6.99857C10.7121 7.39675 11.1307 7.699 11.6071 7.87089V23.2143H3.57143V25H21.4286V23.2143H13.3929V7.87134C13.905 7.69018 14.3498 7.35733 14.6681 6.91711C14.9864 6.47689 15.1631 5.95017 15.1746 5.40705L18.7729 4.20723L16.1657 9.42223C16.1037 9.54618 16.0715 9.68285 16.0714 9.82143ZM4.46429 17.8571C3.91225 17.8553 3.37432 17.6826 2.92429 17.3629C2.47426 17.0432 2.13418 16.5921 1.95071 16.0714H6.9775C6.79405 16.592 6.45403 17.0431 6.00407 17.3628C5.55411 17.6825 5.01626 17.8552 4.46429 17.8571ZM6.59116 14.2857H2.33741L4.46429 10.0324L6.59116 14.2857ZM12.5 6.25C12.3234 6.25 12.1508 6.19763 12.004 6.09953C11.8571 6.00142 11.7427 5.86197 11.6751 5.69882C11.6075 5.53568 11.5898 5.35615 11.6243 5.18296C11.6587 5.00976 11.7438 4.85067 11.8687 4.7258C11.9935 4.60093 12.1526 4.51589 12.3258 4.48144C12.499 4.44699 12.6785 4.46467 12.8417 4.53225C13.0048 4.59983 13.1443 4.71427 13.2424 4.8611C13.3405 5.00793 13.3929 5.18055 13.3929 5.35714C13.3926 5.59388 13.2985 5.82086 13.1311 5.98825C12.9637 6.15565 12.7367 6.24979 12.5 6.25ZM20.5357 12.5C19.9837 12.4981 19.4458 12.3255 18.9957 12.0058C18.5457 11.686 18.2056 11.2349 18.0221 10.7143H23.0489C22.8655 11.2349 22.5255 11.686 22.0755 12.0057C21.6255 12.3254 21.0877 12.4981 20.5357 12.5ZM20.5357 4.67527L22.6626 8.92857H18.4088L20.5357 4.67527Z" fill="white"/>
</svg>
